<svg width="351" height="352" viewBox="0 0 351 352" fill="none" xmlns="http://www.w3.org/2000/svg">
<g filter="url(#filter0_d_9647_50328)">
<rect x="40" y="40.6992" width="271" height="271" rx="135.5" fill="white"/>
<path d="M117.492 251.699H114.377V243.32C114.377 242.415 114.416 241.416 114.494 240.322H114.416C114.253 241.182 114.107 241.8 113.977 242.178L110.695 251.699H108.117L104.777 242.275C104.686 242.021 104.54 241.37 104.338 240.322H104.25C104.335 241.702 104.377 242.913 104.377 243.955V251.699H101.535V237.695H106.154L109.016 245.996C109.243 246.66 109.41 247.327 109.514 247.998H109.572C109.748 247.223 109.934 246.549 110.129 245.977L112.99 237.695H117.492V251.699ZM121.936 240.117C121.415 240.117 120.988 239.964 120.656 239.658C120.324 239.346 120.158 238.965 120.158 238.516C120.158 238.053 120.324 237.676 120.656 237.383C120.988 237.09 121.415 236.943 121.936 236.943C122.463 236.943 122.889 237.09 123.215 237.383C123.547 237.676 123.713 238.053 123.713 238.516C123.713 238.984 123.547 239.368 123.215 239.668C122.889 239.967 122.463 240.117 121.936 240.117ZM123.459 251.699H120.373V241.699H123.459V251.699ZM133.635 251.338C132.938 251.742 131.932 251.943 130.617 251.943C129.081 251.943 127.837 251.478 126.887 250.547C125.936 249.616 125.461 248.415 125.461 246.943C125.461 245.244 125.969 243.906 126.984 242.93C128.007 241.947 129.37 241.455 131.076 241.455C132.255 241.455 133.107 241.611 133.635 241.924V244.541C132.99 244.059 132.271 243.818 131.477 243.818C130.591 243.818 129.888 244.079 129.367 244.6C128.853 245.114 128.596 245.827 128.596 246.738C128.596 247.624 128.843 248.32 129.338 248.828C129.833 249.329 130.513 249.58 131.379 249.58C132.147 249.58 132.899 249.339 133.635 248.857V251.338ZM142.189 244.482C141.818 244.281 141.385 244.18 140.891 244.18C140.22 244.18 139.696 244.427 139.318 244.922C138.941 245.41 138.752 246.077 138.752 246.924V251.699H135.666V241.699H138.752V243.555H138.791C139.279 242.201 140.158 241.523 141.428 241.523C141.753 241.523 142.007 241.562 142.189 241.641V244.482ZM148.322 251.943C146.656 251.943 145.344 251.478 144.387 250.547C143.436 249.609 142.961 248.34 142.961 246.738C142.961 245.085 143.456 243.792 144.445 242.861C145.435 241.924 146.773 241.455 148.459 241.455C150.119 241.455 151.421 241.924 152.365 242.861C153.309 243.792 153.781 245.026 153.781 246.562C153.781 248.223 153.293 249.535 152.316 250.498C151.346 251.462 150.015 251.943 148.322 251.943ZM148.4 243.818C147.671 243.818 147.105 244.069 146.701 244.57C146.298 245.072 146.096 245.781 146.096 246.699C146.096 248.62 146.87 249.58 148.42 249.58C149.898 249.58 150.637 248.594 150.637 246.621C150.637 244.753 149.891 243.818 148.4 243.818ZM155.129 251.436V248.936C155.637 249.242 156.141 249.469 156.643 249.619C157.15 249.769 157.629 249.844 158.078 249.844C158.625 249.844 159.055 249.769 159.367 249.619C159.686 249.469 159.846 249.242 159.846 248.936C159.846 248.74 159.774 248.577 159.631 248.447C159.488 248.317 159.302 248.203 159.074 248.105C158.853 248.008 158.609 247.92 158.342 247.842C158.075 247.764 157.818 247.676 157.57 247.578C157.173 247.428 156.822 247.269 156.516 247.1C156.216 246.924 155.962 246.722 155.754 246.494C155.552 246.266 155.396 246.003 155.285 245.703C155.181 245.404 155.129 245.049 155.129 244.639C155.129 244.079 155.249 243.597 155.49 243.193C155.738 242.79 156.063 242.461 156.467 242.207C156.877 241.947 157.342 241.758 157.863 241.641C158.391 241.517 158.938 241.455 159.504 241.455C159.947 241.455 160.396 241.491 160.852 241.562C161.307 241.628 161.757 241.725 162.199 241.855V244.238C161.809 244.01 161.389 243.841 160.939 243.73C160.497 243.613 160.061 243.555 159.631 243.555C159.429 243.555 159.237 243.574 159.055 243.613C158.879 243.646 158.723 243.698 158.586 243.77C158.449 243.835 158.342 243.923 158.264 244.033C158.186 244.137 158.146 244.258 158.146 244.395C158.146 244.577 158.205 244.733 158.322 244.863C158.439 244.993 158.592 245.107 158.781 245.205C158.97 245.296 159.178 245.381 159.406 245.459C159.641 245.531 159.872 245.605 160.1 245.684C160.51 245.827 160.881 245.983 161.213 246.152C161.545 246.322 161.828 246.52 162.062 246.748C162.303 246.976 162.486 247.243 162.609 247.549C162.74 247.855 162.805 248.219 162.805 248.643C162.805 249.235 162.674 249.743 162.414 250.166C162.16 250.583 161.818 250.924 161.389 251.191C160.965 251.452 160.474 251.641 159.914 251.758C159.361 251.882 158.785 251.943 158.186 251.943C157.085 251.943 156.066 251.774 155.129 251.436ZM169.357 251.943C167.691 251.943 166.379 251.478 165.422 250.547C164.471 249.609 163.996 248.34 163.996 246.738C163.996 245.085 164.491 243.792 165.48 242.861C166.47 241.924 167.808 241.455 169.494 241.455C171.154 241.455 172.456 241.924 173.4 242.861C174.344 243.792 174.816 245.026 174.816 246.562C174.816 248.223 174.328 249.535 173.352 250.498C172.382 251.462 171.05 251.943 169.357 251.943ZM169.436 243.818C168.706 243.818 168.14 244.069 167.736 244.57C167.333 245.072 167.131 245.781 167.131 246.699C167.131 248.62 167.906 249.58 169.455 249.58C170.933 249.58 171.672 248.594 171.672 246.621C171.672 244.753 170.926 243.818 169.436 243.818ZM183.029 239.258C182.632 239.102 182.251 239.023 181.887 239.023C180.897 239.023 180.402 239.561 180.402 240.635V241.699H182.688V243.975H180.402V251.699H177.326V243.975H175.646V241.699H177.326V240.459C177.326 239.32 177.697 238.402 178.439 237.705C179.182 237.008 180.191 236.66 181.467 236.66C182.092 236.66 182.613 236.725 183.029 236.855V239.258ZM190.617 251.582C190.161 251.823 189.475 251.943 188.557 251.943C186.382 251.943 185.295 250.814 185.295 248.555V243.975H183.674V241.699H185.295V239.541L188.371 238.662V241.699H190.617V243.975H188.371V248.018C188.371 249.059 188.785 249.58 189.611 249.58C189.937 249.58 190.272 249.486 190.617 249.297V251.582ZM210.51 251.699H207.072L206.076 248.584H201.096L200.109 251.699H196.691L201.789 237.695H205.529L210.51 251.699ZM205.354 246.162L203.85 241.455C203.739 241.104 203.661 240.684 203.615 240.195H203.537C203.505 240.605 203.423 241.012 203.293 241.416L201.77 246.162H205.354ZM219.875 251.699H210.9V250.42L215.92 243.975H211.398V241.699H219.836V243.223L215.08 249.424H219.875V251.699ZM231.047 251.699H227.971V250.176H227.922C227.16 251.354 226.141 251.943 224.865 251.943C222.548 251.943 221.389 250.54 221.389 247.734V241.699H224.465V247.461C224.465 248.874 225.025 249.58 226.145 249.58C226.698 249.58 227.141 249.388 227.473 249.004C227.805 248.613 227.971 248.086 227.971 247.422V241.699H231.047V251.699ZM240.178 244.482C239.807 244.281 239.374 244.18 238.879 244.18C238.208 244.18 237.684 244.427 237.307 244.922C236.929 245.41 236.74 246.077 236.74 246.924V251.699H233.654V241.699H236.74V243.555H236.779C237.268 242.201 238.146 241.523 239.416 241.523C239.742 241.523 239.995 241.562 240.178 241.641V244.482ZM250.529 247.578H244.006C244.11 249.03 245.025 249.756 246.75 249.756C247.85 249.756 248.817 249.495 249.65 248.975V251.201C248.726 251.696 247.525 251.943 246.047 251.943C244.432 251.943 243.179 251.497 242.287 250.605C241.395 249.707 240.949 248.457 240.949 246.855C240.949 245.195 241.431 243.88 242.395 242.91C243.358 241.94 244.543 241.455 245.949 241.455C247.408 241.455 248.534 241.888 249.328 242.754C250.129 243.62 250.529 244.795 250.529 246.279V247.578ZM247.668 245.684C247.668 244.251 247.089 243.535 245.93 243.535C245.435 243.535 245.005 243.74 244.641 244.15C244.283 244.561 244.064 245.072 243.986 245.684H247.668Z" fill="#0078D4"/>
<g clip-path="url(#clip0_9647_50328)">
<path d="M153.922 89.8206H191.509L152.49 205.499C152.29 206.089 152 206.645 151.629 207.147C151.259 207.649 150.813 208.088 150.307 208.452C149.8 208.816 149.241 209.098 148.647 209.289C148.053 209.479 147.434 209.578 146.812 209.578H117.56C116.61 209.578 115.673 209.352 114.828 208.917C113.983 208.483 113.253 207.854 112.699 207.082C112.145 206.309 111.782 205.416 111.641 204.476C111.5 203.536 111.586 202.575 111.889 201.675L148.242 93.8967C148.441 93.306 148.731 92.7503 149.103 92.2485C149.473 91.7467 149.921 91.3069 150.426 90.9433C150.932 90.5796 151.491 90.297 152.085 90.1064C152.679 89.9159 153.298 89.8174 153.921 89.8174V89.819L153.922 89.8206Z" fill="url(#paint0_linear_9647_50328)"/>
<path d="M223.211 209.578H189.46C189.084 209.578 188.708 209.543 188.336 209.471C187.966 209.402 187.602 209.297 187.252 209.159C186.901 209.02 186.564 208.849 186.245 208.649C185.926 208.448 185.627 208.217 185.351 207.96L147.051 172.191C146.646 171.813 146.364 171.321 146.241 170.781C146.119 170.24 146.162 169.675 146.365 169.16C146.568 168.644 146.921 168.201 147.38 167.889C147.839 167.578 148.38 167.411 148.934 167.411H208.537L223.208 209.579L223.211 209.578Z" fill="#0078D4"/>
<path d="M191.644 89.8206L165.333 167.419L208.324 167.41L223.07 209.578H189.447C189.099 209.575 188.751 209.543 188.408 209.481C188.065 209.419 187.729 209.329 187.401 209.208C186.746 208.969 186.135 208.619 185.598 208.174L159.744 184.045L152.506 205.389C152.319 205.922 152.061 206.429 151.741 206.894C151.098 207.83 150.218 208.579 149.192 209.065C148.681 209.307 148.14 209.479 147.584 209.578H117.577C116.618 209.581 115.672 209.352 114.819 208.911C113.966 208.47 113.232 207.83 112.679 207.045C112.125 206.261 111.769 205.354 111.64 204.403C111.511 203.451 111.613 202.482 111.937 201.578L148.231 93.9777C148.42 93.3759 148.705 92.809 149.073 92.2977C149.44 91.7864 149.888 91.3354 150.396 90.9639C150.904 90.5923 151.469 90.3033 152.068 90.1096C152.666 89.9159 153.294 89.8174 153.924 89.8206H191.646H191.644Z" fill="url(#paint1_linear_9647_50328)"/>
<path d="M238.284 201.675C238.587 202.576 238.672 203.536 238.533 204.476C238.392 205.416 238.03 206.309 237.477 207.082C236.923 207.854 236.193 208.483 235.348 208.917C234.503 209.351 233.567 209.577 232.616 209.578H190.725C191.674 209.578 192.611 209.351 193.457 208.917C194.302 208.484 195.033 207.853 195.587 207.082C196.141 206.31 196.503 205.416 196.644 204.476C196.786 203.536 196.7 202.575 196.397 201.675L160.042 93.8936C159.642 92.7063 158.879 91.6744 157.862 90.9433C157.357 90.5796 156.798 90.2986 156.205 90.108C155.613 89.9175 154.994 89.8206 154.373 89.8206H196.263C196.886 89.8206 197.503 89.9175 198.097 90.108C198.69 90.2986 199.248 90.5812 199.755 90.9433C200.26 91.3069 200.706 91.7467 201.076 92.2469C201.446 92.7471 201.735 93.3029 201.935 93.8936L238.29 201.675H238.284Z" fill="url(#paint2_linear_9647_50328)"/>
</g>
</g>
<defs>
<filter id="filter0_d_9647_50328" x="0" y="0.699219" width="351" height="351" filterUnits="userSpaceOnUse" color-interpolation-filters="sRGB">
<feFlood flood-opacity="0" result="BackgroundImageFix"/>
<feColorMatrix in="SourceAlpha" type="matrix" values="0 0 0 0 0 0 0 0 0 0 0 0 0 0 0 0 0 0 127 0" result="hardAlpha"/>
<feOffset/>
<feGaussianBlur stdDeviation="20"/>
<feComposite in2="hardAlpha" operator="out"/>
<feColorMatrix type="matrix" values="0 0 0 0 0 0 0 0 0 0 0 0 0 0 0 0 0 0 0.15 0"/>
<feBlend mode="normal" in2="BackgroundImageFix" result="effect1_dropShadow_9647_50328"/>
<feBlend mode="normal" in="SourceGraphic" in2="effect1_dropShadow_9647_50328" result="shape"/>
</filter>
<linearGradient id="paint0_linear_9647_50328" x1="167.64" y1="98.6969" x2="128.578" y2="214.089" gradientUnits="userSpaceOnUse">
<stop stop-color="#114A8B"/>
<stop offset="1" stop-color="#0669BC"/>
</linearGradient>
<linearGradient id="paint1_linear_9647_50328" x1="179.819" y1="152.463" x2="170.784" y2="155.528" gradientUnits="userSpaceOnUse">
<stop stop-opacity="0.3"/>
<stop offset="0.1" stop-opacity="0.2"/>
<stop offset="0.3" stop-opacity="0.1"/>
<stop offset="0.6" stop-opacity="0.1"/>
<stop offset="1" stop-opacity="0"/>
</linearGradient>
<linearGradient id="paint2_linear_9647_50328" x1="174.833" y1="95.3306" x2="217.706" y2="209.548" gradientUnits="userSpaceOnUse">
<stop stop-color="#3CCBF4"/>
<stop offset="1" stop-color="#2892DF"/>
</linearGradient>
<clipPath id="clip0_9647_50328">
<rect width="127.173" height="120" fill="white" transform="translate(111.5 89.6992)"/>
</clipPath>
</defs>
</svg>
